<?xml version="1.0" encoding="utf-8"?>
<!-- Generator: Adobe Illustrator 13.0.1, SVG Export Plug-In . SVG Version: 6.00 Build 14948)  -->
<!DOCTYPE svg PUBLIC "-//W3C//DTD SVG 1.1//EN" "http://www.w3.org/Graphics/SVG/1.1/DTD/svg11.dtd">
<svg version="1.1" id="Layer_1" xmlns="http://www.w3.org/2000/svg" xmlns:xlink="http://www.w3.org/1999/xlink" x="0px" y="0px"
	 width="26.47px" height="34.362px" viewBox="0 0 26.47 34.362" enable-background="new 0 0 26.47 34.362" xml:space="preserve">
<g>
	<rect x="1.235" y="1.235" fill="#003E7E" stroke="#003E7E" stroke-width="2.471" width="23.999" height="31.892"/>
	<rect x="1.934" y="2.044" fill="#003E7E" stroke="#F58025" stroke-width="0.7626" width="22.601" height="30.397"/>
	<g>
		<path fill="#FFFFFF" d="M19.406,28.725v-1.671c-2.342-0.355-3.752-1.096-3.775-7.217v-5.822c0-5.761,1.012-6.154,3.286-6.606
			V5.916H9.345C8.609,5.907,8.001,6.111,7.592,6.51c-0.34,0.33-0.524,0.769-0.529,1.268C7.056,8.25,7.227,8.673,7.542,8.971
			c0.292,0.274,0.677,0.415,1.06,0.386C9.176,9.315,9.801,8.9,9.886,8.19c0.047-0.385-0.084-0.636-0.202-0.779
			C9.531,7.224,9.304,7.106,9.06,7.088C8.761,7.066,8.485,7.186,8.32,7.409C8.181,7.598,8.146,7.831,8.226,8.033
			C8.281,8.175,8.443,8.246,8.585,8.19c0.143-0.057,0.213-0.217,0.158-0.361c-0.009-0.022,0-0.058,0.024-0.089
			C8.786,7.713,8.86,7.631,9.019,7.642c0.092,0.007,0.179,0.052,0.236,0.121c0.071,0.086,0.098,0.211,0.08,0.361
			c-0.05,0.412-0.426,0.653-0.773,0.679c-0.228,0.017-0.46-0.07-0.639-0.237c-0.142-0.134-0.31-0.378-0.305-0.781
			c0.004-0.348,0.129-0.652,0.361-0.877c0.301-0.293,0.772-0.446,1.362-0.438c0.002,0,3.418,0,4.339,0v0.608h-3.013
			c-0.187,0-0.338,0.15-0.338,0.337c0,0.187,0.151,0.337,0.338,0.337h3.013v0.542h-2.837l0,0c-0.154,0-0.278,0.125-0.278,0.278
			c0,0.154,0.125,0.278,0.278,0.278h2.837v17.121H8.864c-0.171,0-0.309,0.138-0.309,0.309s0.138,0.309,0.309,0.309h4.816v0.743
			H7.934c-0.383,0-0.693,0.311-0.693,0.691l-0.002,0.7H19.406z"/>
		<path fill="#FFFFFF" d="M11.458,24.912V9.95c0-0.152-0.125-0.277-0.278-0.277c-0.154,0-0.279,0.125-0.279,0.277v14.962
			c0,0.154,0.125,0.278,0.279,0.278C11.334,25.19,11.458,25.066,11.458,24.912z"/>
		<path fill="#FFFFFF" d="M12.902,24.87V10.016c0-0.205-0.166-0.371-0.371-0.371c-0.204,0-0.37,0.166-0.37,0.371V24.87
			c0,0.207,0.166,0.371,0.37,0.371C12.736,25.241,12.902,25.077,12.902,24.87z"/>
	</g>
</g>
</svg>
